<?xml version="1.0" encoding="UTF-8" standalone="no"?>
<!-- Created with Inkscape (http://www.inkscape.org/) -->

<svg
   xmlns:dc="http://purl.org/dc/elements/1.1/"
   xmlns:cc="http://creativecommons.org/ns#"
   xmlns:rdf="http://www.w3.org/1999/02/22-rdf-syntax-ns#"
   xmlns:svg="http://www.w3.org/2000/svg"
   xmlns="http://www.w3.org/2000/svg"
   xmlns:sodipodi="http://sodipodi.sourceforge.net/DTD/sodipodi-0.dtd"
   xmlns:inkscape="http://www.inkscape.org/namespaces/inkscape"
   width="800"
   height="800"
   viewBox="0 0 211.66667 211.66667"
   version="1.1"
   id="svg4626"
   inkscape:version="0.92.3 (2405546, 2018-03-11)"
   sodipodi:docname="japankanji.svg">
  <defs
     id="defs4620" />
  <sodipodi:namedview
     id="base"
     pagecolor="#ffffff"
     bordercolor="#666666"
     borderopacity="1.0"
     inkscape:pageopacity="0.0"
     inkscape:pageshadow="2"
     inkscape:zoom="0.7"
     inkscape:cx="281.0639"
     inkscape:cy="431.09537"
     inkscape:document-units="mm"
     inkscape:current-layer="layer1"
     showgrid="false"
     units="px"
     inkscape:window-width="1920"
     inkscape:window-height="1017"
     inkscape:window-x="0"
     inkscape:window-y="30"
     inkscape:window-maximized="1" />
  <metadata
     id="metadata4623">
    <rdf:RDF>
      <cc:Work
         rdf:about="">
        <dc:format>image/svg+xml</dc:format>
        <dc:type
           rdf:resource="http://purl.org/dc/dcmitype/StillImage" />
        <dc:title></dc:title>
      </cc:Work>
    </rdf:RDF>
  </metadata>
  <g
     inkscape:label="Camada 1"
     inkscape:groupmode="layer"
     id="layer1"
     transform="translate(0,-85.333337)">
    <circle
       style="fill:#ff5555;fill-opacity:1;stroke-width:0.29015228"
       id="path4650"
       cx="105.83333"
       cy="191.39345"
       r="98.651787" />
    <path
       style="fill:#ffffff;stroke-width:0.43705875"
       d="m 139.2191,230.1443 c -1.57303,-1.72034 -2.38435,-3.84244 -3.19537,-8.3579 -0.71671,-3.99025 -0.72766,-4.51742 -0.11844,-5.69554 0.61539,-1.19003 0.88842,-7.07458 0.35309,-7.60991 -0.29851,-0.2985 -4.08384,0.74011 -7.12881,1.95598 -3.26858,1.30518 -3.28859,1.29533 -6.06541,-2.98695 -2.65262,-4.09072 -2.46806,-4.74656 1.07986,-3.83725 1.926,0.49361 2.38561,0.42519 6.86698,-1.02231 l 4.80284,-1.55134 0.27888,-4.07702 c 0.63664,-9.30742 0.33822,-15.4077 -0.63026,-12.88388 -0.67437,1.7574 -8.99618,12.05949 -12.96876,16.05485 -5.26396,5.29414 -9.48081,8.41918 -15.05695,11.15848 -3.21318,1.57847 -4.33808,1.91677 -6.37378,1.91677 -1.359589,0 -2.594177,-0.12228 -2.743541,-0.27158 -0.149365,-0.14936 1.538778,-1.65198 3.751431,-3.33916 5.91031,-4.50671 13.38614,-11.24962 18.27333,-16.48184 4.26205,-4.56295 13.04368,-15.22572 13.05825,-15.85551 0.0222,-0.95785 -7.02609,0.47519 -13.95563,2.83743 -2.93869,1.00179 -4.54876,1.82707 -5.5838,2.8621 -1.66478,1.66479 -2.60073,1.60724 -4.64179,-0.2854 -1.10065,-1.02062 -4.05884,-6.10848 -3.70231,-6.36767 0.0758,-0.0551 2.10464,-0.32344 4.50847,-0.59623 3.52003,-0.39948 15.81077,-3.17843 25.68382,-5.80714 l 1.6456,-0.43814 -0.28285,-4.89828 c -0.32199,-5.57612 -0.38784,-5.70207 -4.18783,-8.01045 -3.39784,-2.06408 -3.36395,-2.86517 0.1717,-4.05918 3.6664,-1.23816 4.61643,-1.16438 8.04967,0.62514 4.44262,2.31566 5.85135,3.52124 5.85135,5.00753 0,1.33756 -0.97481,2.63132 -1.9826,2.63132 -1.13776,0 -1.79623,2.69937 -1.57257,6.44662 0.0795,1.33195 1.0107,1.28343 7.33225,-0.38198 4.89967,-1.29083 5.36829,-1.33935 8.58338,-0.88858 3.49316,0.48975 6.45142,1.56768 8.94317,3.25874 1.10484,0.74981 1.41811,1.27276 1.42044,2.37118 0.002,1.13895 -0.26003,1.54523 -1.36843,2.11841 -1.65807,0.85742 -6.3885,0.70443 -12.39593,-0.40092 -3.46341,-0.63726 -4.33978,-0.65263 -7.33261,-0.1287 -1.86949,0.32728 -3.51242,0.70841 -3.65097,0.84695 -0.33257,0.33256 3.53286,5.89735 6.75721,9.72786 1.41049,1.67567 3.92183,4.14639 5.58075,5.49048 2.94252,2.38409 4.72444,3.62063 14.15885,9.82541 5.63735,3.70752 11.02707,8.6673 10.84011,9.97535 -0.16608,1.16195 -3.24732,2.22623 -8.26783,2.85574 -5.81742,0.72945 -7.58029,0.16663 -11.12812,-3.55275 -2.82353,-2.96006 -3.78834,-4.24193 -9.81178,-13.03616 -2.71664,-3.96631 -5.81236,-8.48328 -6.87938,-10.03771 -2.02356,-2.94791 -3.19068,-4.09711 -3.64699,-3.59096 -0.33451,0.37104 0.30873,15.43625 0.71354,16.71168 0.22238,0.70062 0.52778,0.86468 1.23656,0.66424 0.51769,-0.14642 2.12998,-0.38574 3.58287,-0.53183 2.16595,-0.21777 2.96271,-0.10184 4.42486,0.64415 2.05586,1.04881 4.07851,3.262 4.07851,4.4627 0,1.31779 -1.50588,1.78486 -6.26652,1.94362 -2.44986,0.0818 -5.01741,0.40514 -5.70567,0.71872 l -1.25137,0.57017 0.27189,3.5101 c 0.71079,9.17645 0.82788,15.38966 0.31907,16.93135 -0.54907,1.66373 -2.42224,3.84258 -3.30346,3.84258 -0.28589,0 -0.92443,-0.44251 -1.41898,-0.98338 z m -60.17763,-2.02879 c -0.663866,-0.69293 -1.465546,-2.01958 -1.781513,-2.94811 -0.895992,-2.63309 -2.585963,-3.38834 -8.032917,-3.58997 -8.327696,-0.30826 -17.251505,1.03144 -26.199141,3.93319 l -5.374202,1.74289 -1.837269,-1.08513 c -3.434629,-2.02854 -4.47483,-3.56989 -5.302451,-7.85702 -0.722021,-3.74012 -0.717713,-3.97116 0.142638,-7.64852 2.050393,-8.76393 3.167383,-25.17984 2.666957,-39.19518 l -0.218529,-6.12033 -1.8575,-2.77992 c -1.021625,-1.52894 -1.857499,-3.05251 -1.857499,-3.38569 0,-0.89744 2.305237,-0.75833 5.734129,0.34601 l 2.955265,0.95182 19.034982,-4.06274 c 10.469241,-2.2345 19.556346,-3.96308 20.193566,-3.84127 0.637223,0.12179 1.685561,0.0704 2.329645,-0.11435 1.369388,-0.39273 3.944634,0.59718 9.629463,3.70148 3.9382,2.15054 6.118822,4.08522 6.118822,5.42873 0,0.95022 -3.179799,3.9775 -4.177893,3.9775 -0.891701,0 -2.369466,3.37935 -2.310485,5.28363 0.0254,0.81992 -0.176056,2.2984 -0.447666,3.2855 -1.108451,4.02836 -1.313454,10.08358 -0.560707,16.56174 0.251383,2.16345 0.467854,5.60528 0.481039,7.64853 0.01319,2.04326 0.04161,7.85264 0.06312,12.90976 l 0.03916,9.19476 -1.429134,3.26141 c -1.813021,4.13744 -1.988486,4.35407 -3.526916,4.35407 -0.700168,0 -1.721889,0.2941 -2.270484,0.65356 -0.930573,0.60973 -1.078382,0.56906 -2.204481,-0.60632 z m -32.824664,-9.89843 c 10.375898,-2.52833 19.01899,-4.08995 24.489285,-4.42465 l 4.448724,-0.2722 0.279741,-4.85436 c 0.153857,-2.6699 0.280634,-7.75955 0.281727,-11.31034 0.0026,-8.02086 0.119542,-7.90128 -6.343803,-6.47983 -2.334562,0.51343 -6.574374,1.12385 -9.421804,1.35649 -5.7768,0.47197 -8.094069,0.91278 -11.397978,2.16816 l -2.252329,0.85581 -2.805334,-1.56882 c -2.012318,-1.12535 -2.939044,-1.43513 -3.278332,-1.09584 -0.271297,0.27129 -0.716777,4.53495 -1.04468,9.99856 -0.35301,5.88197 -0.905582,11.03017 -1.444605,13.4591 -1.07624,4.84972 -1.072911,4.74731 -0.142523,4.38378 0.420669,-0.16437 4.305029,-1.1615 8.631911,-2.21586 z m 4.585435,-30.34079 c 6.752261,-1.82948 12.669441,-3.91085 16.113876,-5.66808 1.738258,-0.88679 1.929009,-0.89811 4.389395,-0.26057 4.260899,1.10412 4.254806,1.10721 4.494673,-2.28362 0.114785,-1.62259 0.09413,-6.57501 -0.04588,-11.00537 l -0.25457,-8.05524 -1.311175,-0.37929 c -1.760766,-0.50935 -5.977998,-0.0793 -11.800587,1.20356 -2.644206,0.58255 -7.266102,1.46858 -10.27088,1.96896 -7.541778,1.25591 -11.220044,2.1283 -11.770595,2.79168 -0.775956,0.93497 -1.035561,6.61339 -0.695851,15.22056 l 0.321633,8.14912 1.155495,0.19125 c 1.630442,0.26984 2.104576,0.17805 9.67446,-1.87296 z"
       id="path9171"
       inkscape:connector-curvature="0" />
  </g>
</svg>
